<?xml version="1.0" encoding="iso-8859-1"?>
<!-- Uploaded to: SVG Repo, www.svgrepo.com, Generator: SVG Repo Mixer Tools -->
<svg version="1.1" id="Layer_1" xmlns="http://www.w3.org/2000/svg" xmlns:xlink="http://www.w3.org/1999/xlink" 
	 viewBox="0 0 512.001 512.001" xml:space="preserve">
<g>
	<path style="fill:#FF8C78;" d="M102.24,205.013c-2.287,0-4.465,0.978-5.984,2.687c-1.323,1.488-2.036,3.407-2.022,5.378
		C94.214,208.747,97.816,205.013,102.24,205.013z"/>
	<path style="fill:#FF8C78;" d="M94.287,213.957c-0.034-0.293-0.052-0.584-0.053-0.873
		C94.236,213.374,94.252,213.665,94.287,213.957z"/>
	<path style="fill:#FF8C78;" d="M385.072,435.12H127.375c-3.763,0-6.683,3.282-6.245,7.021l7.327,62.521
		c0.474,4.033,3.893,7.34,7.953,7.34h239.182c4.061,0,7.479-3.307,7.953-7.34l7.379-62.963
		C391.334,438.195,388.598,435.12,385.072,435.12z"/>
</g>
<g>
	<path style="fill:#DF7A6E;" d="M94.766,213.084c0-0.002,0-0.003,0-0.005C94.766,213.08,94.766,213.083,94.766,213.084z"/>
	<path style="fill:#DF7A6E;" d="M177.268,435.12h-49.893c-3.763,0-6.683,3.282-6.245,7.021l7.327,62.521
		c0.474,4.033,3.893,7.34,7.953,7.34h107.114C217.252,490.644,194.762,464.491,177.268,435.12z"/>
</g>
<path style="fill:#FF8C78;" d="M415.846,208.082c-1.439-1.672-3.609-2.535-5.816-2.535H102.24c-4.424,0-8.542,3.201-7.474,7.532
	c0,0.002,0,0.003,0,0.005c0,0.288-0.247,0.58-0.212,0.873l11.976,103.93c0.406,3.524,3.389,6.184,6.936,6.184h285.035
	c3.569,0,6.572-2.671,6.989-6.214l12.224-103.898C417.975,211.736,417.296,209.766,415.846,208.082z"/>
<path style="fill:#DF7A6E;" d="M136.409,285.898c0-27.996,3.918-55.791,11.189-80.35H102.24c-4.424,0-8.542,3.201-7.474,7.532
	c0,0.002,0,0.003,0,0.005c0,0.288-0.247,0.58-0.212,0.873l11.976,103.93c0.406,3.524,3.389,6.184,6.936,6.184h25.429
	C137.257,311.498,136.409,298.933,136.409,285.898z"/>
<polygon style="fill:#F6F6F7;" points="405.701,316.062 106.299,316.062 121.311,443.662 390.69,443.662 "/>
<path style="fill:#ECEDEF;" d="M137.972,316.062h-31.674l15.012,127.6h61.256C158.54,406.346,142.775,362.892,137.972,316.062z"/>
<path style="fill:#DF7A6E;" d="M417.713,213.957c0.268-2.271-0.45-4.549-1.969-6.257c-1.519-1.708-3.698-2.687-5.984-2.687H102.24
	c-2.287,0-4.465,0.978-5.984,2.687s-2.237,3.986-1.969,6.257l3.91,33.234h315.607L417.713,213.957z"/>
<path style="fill:#D9DCDF;" d="M391.903,91.488c-0.892-3.565-4.095-6.066-7.769-6.066H127.867c-3.674,0-6.878,2.501-7.769,6.066
	l-15.435,61.738h302.675L391.903,91.488z"/>
<g>
	<path style="fill:#8E959F;" d="M221.831,111.049h-68.338c-4.424,0-8.008,3.586-8.008,8.008v34.169c0,4.423,3.585,8.008,8.008,8.008
		h68.338c4.424,0,8.008-3.586,8.008-8.008v-34.169C229.84,114.634,226.254,111.049,221.831,111.049z"/>
	<path style="fill:#8E959F;" d="M229.84,119.057c0-4.423-3.585-8.008-8.008-8.008h-68.338c-4.424,0-8.008,3.586-8.008,8.008v8.542
		h84.355V119.057z"/>
</g>
<path style="fill:#68727E;" d="M145.485,127.599v25.627c0,4.423,3.585,8.008,8.008,8.008h68.338c4.424,0,8.008-3.586,8.008-8.008
	v-25.627H145.485z"/>
<path style="fill:#ECEDEF;" d="M443.93,145.218H68.071c-4.424,0-8.008,3.586-8.008,8.008v68.338c0,4.423,3.585,8.008,8.008,8.008
	H443.93c4.424,0,8.008-3.586,8.008-8.008v-68.338C451.938,148.803,448.352,145.218,443.93,145.218z"/>
<path style="fill:#D9DCDF;" d="M68.071,145.218c-4.424,0-8.008,3.586-8.008,8.008v68.338c0,4.423,3.585,8.008,8.008,8.008h18.152
	v-84.355H68.071z"/>
<rect x="300.847" y="145.218" style="fill:#F6F6F7;" width="58.728" height="84.355"/>
<g>
	<path style="fill:#FFD791;" d="M256,75.812c-2.049,0-4.099-0.782-5.663-2.346c-14.783-14.783-5.685-28.749-0.249-37.094
		c6.44-9.885,8.716-14.236,0.249-22.702c-3.128-3.128-3.128-8.198,0-11.325c3.129-3.128,8.198-3.128,11.326,0
		c17.989,17.99,7.882,33.502,1.845,42.771c-6.224,9.553-6.996,11.875-1.845,17.025C266.597,67.074,263.004,75.812,256,75.812z"/>
	<path style="fill:#FFD791;" d="M316.462,75.812c-2.049,0-4.099-0.782-5.663-2.346c-14.783-14.783-5.685-28.749-0.249-37.094
		c6.44-9.885,8.716-14.236,0.249-22.702c-3.128-3.128-3.128-8.198,0-11.325c3.129-3.128,8.198-3.128,11.326,0
		c17.989,17.99,7.882,33.502,1.845,42.771c-6.224,9.553-6.996,11.875-1.845,17.025C327.059,67.074,323.466,75.812,316.462,75.812z"
		/>
	<path style="fill:#FFD791;" d="M196.871,75.812c-2.049,0-4.099-0.782-5.663-2.346c-14.783-14.783-5.685-28.749-0.249-37.094
		c6.44-9.885,8.716-14.236,0.249-22.702c-3.128-3.128-3.128-8.198,0-11.325c3.129-3.128,8.198-3.128,11.326,0
		c17.989,17.99,7.882,33.502,1.845,42.771c-6.224,9.553-6.996,11.875-1.845,17.025C207.468,67.074,203.875,75.812,196.871,75.812z"
		/>
</g>
</svg>