<?xml version="1.0" encoding="iso-8859-1"?>
<!-- Uploaded to: SVG Repo, www.svgrepo.com, Generator: SVG Repo Mixer Tools -->
<svg version="1.1" id="Layer_1" xmlns="http://www.w3.org/2000/svg" xmlns:xlink="http://www.w3.org/1999/xlink" 
	 viewBox="0 0 511.999 511.999" xml:space="preserve">
<g>
	<path style="fill:#94D1EA;" d="M372.102,501.801H139.898c-15.019,0-27.195-12.176-27.195-27.195v-46.022
		c0-15.019,12.176-27.195,27.195-27.195h232.203c15.019,0,27.195,12.176,27.195,27.195v46.022
		C399.297,489.625,387.121,501.801,372.102,501.801z"/>
	<path style="fill:#94D1EA;" d="M372.102,401.389H139.898c-15.019,0-27.195-12.176-27.195-27.195v-46.022
		c0-15.019,12.176-27.195,27.195-27.195h232.203c15.019,0,27.195,12.176,27.195,27.195v46.022
		C399.297,389.213,387.121,401.389,372.102,401.389z"/>
</g>
<g>
	<path style="fill:#EAE8E8;" d="M372.102,300.976H139.898c-15.019,0-27.195-12.176-27.195-27.195v-46.022
		c0-15.019,12.176-27.195,27.195-27.195h232.203c15.019,0,27.195,12.176,27.195,27.195v46.022
		C399.297,288.801,387.121,300.976,372.102,300.976z"/>
	<path style="fill:#EAE8E8;" d="M372.102,200.564H139.898c-15.019,0-27.195-12.176-27.195-27.195v-46.022
		c0-15.019,12.176-27.195,27.195-27.195h232.203c15.019,0,27.195,12.176,27.195,27.195v46.022
		C399.297,188.388,387.121,200.564,372.102,200.564z"/>
	<rect x="204.749" y="53.087" style="fill:#EAE8E8;" width="102.502" height="47.069"/>
</g>
<path style="fill:#FFBA7A;" d="M320.85,53.084H191.15V24.32c0-7.798,6.321-14.121,14.121-14.121H306.73
	c7.798,0,14.121,6.321,14.121,14.121v28.764H320.85z"/>
<g>
	<path style="fill:#5E282D;" d="M409.496,173.369v-46.023c0-20.62-16.775-37.394-37.394-37.394h-54.65V63.283h3.398
		c5.632,0,10.199-4.567,10.199-10.199V24.32c0-13.411-10.909-24.32-24.32-24.32H205.27c-13.41,0-24.32,10.909-24.32,24.32v28.764
		c0,5.632,4.567,10.199,10.199,10.199h3.398v26.669h-54.65c-20.62,0-37.394,16.775-37.394,37.394v46.023
		c0,10.707,4.53,20.371,11.768,27.194c-7.237,6.823-11.768,16.487-11.768,27.195v46.022c0,10.708,4.53,20.372,11.768,27.195
		c-7.237,6.823-11.768,16.487-11.768,27.195v46.022c0,10.708,4.53,20.372,11.768,27.195c-7.237,6.823-11.768,16.487-11.768,27.195
		v46.022c0,20.62,16.775,37.394,37.394,37.394h232.203c20.62,0,37.394-16.775,37.394-37.394v-46.022
		c0-10.708-4.53-20.372-11.768-27.195c7.237-6.823,11.768-16.487,11.768-27.195v-46.022c0-10.708-4.53-20.372-11.768-27.195
		c7.237-6.823,11.768-16.487,11.768-27.195v-46.022c0-10.708-4.53-20.372-11.768-27.195
		C404.965,193.741,409.496,184.077,409.496,173.369z M201.35,42.885V24.32c0-2.162,1.759-3.922,3.922-3.922H306.73
		c2.162,0,3.922,1.759,3.922,3.922v18.565C310.651,42.885,201.35,42.885,201.35,42.885z M214.947,63.283h82.106v26.669h-82.106
		L214.947,63.283L214.947,63.283z M389.098,428.584v46.022c0,9.371-7.625,16.996-16.996,16.996H139.898
		c-9.371,0-16.996-7.625-16.996-16.996v-46.022c0-9.371,7.625-16.996,16.996-16.996h232.203
		C381.473,411.588,389.098,419.212,389.098,428.584z M389.098,328.172v46.022c0,9.371-7.625,16.996-16.996,16.996H139.898
		c-9.371,0-16.996-7.625-16.996-16.996v-46.022c0-9.371,7.625-16.996,16.996-16.996h232.203
		C381.473,311.176,389.098,318.8,389.098,328.172z M389.098,227.759v46.022c0,9.371-7.625,16.996-16.996,16.996H139.898
		c-9.371,0-16.996-7.625-16.996-16.996v-46.022c0-9.371,7.625-16.996,16.996-16.996h232.203
		C381.473,210.762,389.098,218.387,389.098,227.759z M372.102,110.35c9.371,0,16.996,7.625,16.996,16.996v46.023
		c0,9.371-7.625,16.995-16.996,16.995H139.898c-9.371,0-16.996-7.624-16.996-16.995v-46.023c0-9.371,7.625-16.996,16.996-16.996
		H372.102z"/>
	<path style="fill:#5E282D;" d="M133.884,368.191c0,5.632,4.567,10.199,10.199,10.199H217.3c5.632,0,10.199-4.567,10.199-10.199
		c0-5.632-4.567-10.199-10.199-10.199h-73.217C138.45,357.992,133.884,362.559,133.884,368.191z"/>
	<path style="fill:#5E282D;" d="M248.678,378.39h6.276c5.632,0,10.199-4.567,10.199-10.199c0-5.632-4.567-10.199-10.199-10.199
		h-6.276c-5.632,0-10.199,4.567-10.199,10.199C238.479,373.823,243.046,378.39,248.678,378.39z"/>
</g>
</svg>